<?xml version="1.0" encoding="UTF-8" standalone="no"?>
<svg
   xmlns:dc="http://purl.org/dc/elements/1.1/"
   xmlns:cc="http://creativecommons.org/ns#"
   xmlns:rdf="http://www.w3.org/1999/02/22-rdf-syntax-ns#"
   xmlns:svg="http://www.w3.org/2000/svg"
   xmlns="http://www.w3.org/2000/svg"
   xmlns:sodipodi="http://sodipodi.sourceforge.net/DTD/sodipodi-0.dtd"
   xmlns:inkscape="http://www.inkscape.org/namespaces/inkscape"
   id="svg4251"
   height="64.133492mm"
   width="164.15826mm"
   version="1.1"
   viewBox="0 0 581.66314 227.24465"
   inkscape:version="0.91 r13725"
   sodipodi:docname="logo.svg">
  <metadata
     id="metadata25">
    <rdf:RDF>
      <cc:Work
         rdf:about="">
        <dc:format>image/svg+xml</dc:format>
        <dc:type
           rdf:resource="http://purl.org/dc/dcmitype/StillImage" />
        <dc:title></dc:title>
      </cc:Work>
    </rdf:RDF>
  </metadata>
  <defs
     id="defs23" />
  <sodipodi:namedview
     pagecolor="#ffffff"
     bordercolor="#666666"
     borderopacity="1"
     objecttolerance="10"
     gridtolerance="10"
     guidetolerance="10"
     inkscape:pageopacity="0"
     inkscape:pageshadow="2"
     inkscape:window-width="1680"
     inkscape:window-height="988"
     id="namedview21"
     showgrid="false"
     fit-margin-top="0"
     fit-margin-left="0"
     fit-margin-right="0"
     fit-margin-bottom="0"
     inkscape:zoom="0.63429568"
     inkscape:cx="160.15843"
     inkscape:cy="-36.942545"
     inkscape:window-x="-8"
     inkscape:window-y="-8"
     inkscape:window-maximized="1"
     inkscape:current-layer="svg4251" />
  <g
     id="layer1"
     transform="translate(-17.7452,-21.599)">
    <g
       id="g4"
       style="fill-rule:evenodd">
      <path
         id="path3360"
         d="m 21.697,21.599 c -1.95,0.02 -3.95,2.02 -3.9478,4.0212 l -0.004,129.46 91.934,91.934 0,-91.934 0.003,-86.582 -68.951,-46.877 z m 87.983,133.49 0.006,91.922 c 0,0 49.608,0.009 54.021,0.0117 1.9997,-0.009 3.9997,-2.0086 4.001,-4.0053 0,0 0.0199,-57.695 0.003,-83.93 -0.004,-1.999 -2.0043,-4.007 -4,-4.0039 l -54.035,-0.002 z"
         inkscape:connector-curvature="0"
         style="fill:#55aa55;fill-opacity:0.94118" />
      <path
         id="path3363-5-9"
         d="m 109.68,155.08 0.005,22.989 0.002,22.981 0.001,22.981 0.002,22.981 11.488,0.003 11.488,0.003 31.046,-0.002 c 1.998,-1.2e-4 3.998,-2.0029 4.0023,-4.0076 0.004,-1.6363 -0.0715,-18.965 -0.0715,-18.965 l 0.001,-22.981 0.001,-22.981 c 0,0 0.0701,-15.899 0.0671,-18.99 -0.002,-2.005 -2.0019,-4.013 -3.9944,-4.0159 -2.9801,-0.004 -31.052,0.0183 -31.052,0.0183 l -11.49,-0.004 z"
         inkscape:connector-curvature="0"
         style="fill-opacity:0.09803898" />
      <path
         id="path3360-1"
         d="m 117.68,155.08 -8.0009,0.004 10e-4,91.934 7.9999,-0.004 z"
         inkscape:connector-curvature="0"
         style="fill-opacity:0.13725" />
    </g>
    <g
       id="flowRoot6092"
       transform="matrix(1.8386,0,0,1.8386,-35.174,97.703)"
       style="fill:#4c4c4c">
      <g
         id="text4221"
         style="fill:#4c4c4c">
        <path
           id="path4226"
           d="m 131.19,81.109 -0.0102,-69.011 11.991,0 0.0102,69.026 z"
           inkscape:connector-curvature="0" />
        <path
           id="path4228"
           d="m 164.59,81.109 -11.686,0 0,-49.971 11.686,0 z"
           inkscape:connector-curvature="0" />
        <path
           id="path4230"
           d="m 205.44,67.048 c 0,2.1506 -0.3855,4.1592 -1.1565,6.0258 -0.7304,1.826 -1.8666,3.4288 -3.4085,4.8085 -1.5014,1.3391 -3.4086,2.3941 -5.7215,3.1651 -2.2724,0.77098 -4.9505,1.1565 -8.0344,1.1565 -3.0028,0 -5.8432,-0.3652 -8.5213,-1.0956 -2.6781,-0.77098 -6.8171,-2.5526 -6.8171,-2.5526 l 0,-9.6185 c 0,0 9.8328,4.3841 14.973,4.4411 2.6374,0.02924 4.565,-0.56809 5.7823,-1.7043 1.2173,-1.13621 1.826,-2.5158 1.826,-4.1389 0,-0.85213 -0.12172,-1.6028 -0.36519,-2.2521 -0.24348,-0.68982 -0.71012,-1.3188 -1.3999,-1.8869 -0.64924,-0.60867 -1.5825,-1.197 -2.7999,-1.7651 -1.1768,-0.56809 -2.6984,-1.1768 -4.565,-1.826 -2.5564,-0.93329 -4.707,-1.9072 -6.4518,-2.9216 -1.7043,-1.055 -3.0839,-2.1912 -4.1389,-3.4085 -1.0144,-1.2579 -1.7448,-2.597 -2.1912,-4.0172 -0.44636,-1.4608 -0.66954,-3.0433 -0.66954,-4.7476 0,-2.1912 0.46664,-4.1795 1.3999,-5.9649 0.97388,-1.826 2.2724,-3.3882 3.8955,-4.6867 3.8408,-2.8113 8.5568,-4.1001 12.904,-4.0781 2.8067,0.01421 9.2342,1.2079 9.2342,1.2079 l 0.0253,9.7928 c 0,0 -6.3916,-1.4524 -9.2145,-1.4415 -3.7931,-0.17466 -7.3518,1.1519 -7.4098,5.0488 0,0.68982 0.12172,1.3391 0.3652,1.9477 0.28404,0.60867 0.75068,1.197 1.3999,1.7651 0.64925,0.56809 1.542,1.1565 2.6782,1.7651 1.1362,0.56809 2.5767,1.1565 4.3215,1.7651 2.4347,0.85213 4.5244,1.7651 6.2693,2.739 1.7854,0.93329 3.2462,1.9883 4.3824,3.1651 1.1768,1.1768 2.0289,2.5361 2.5564,4.0781 0.56808,1.5014 0.85213,3.2462 0.85213,5.2345 z"
           inkscape:connector-curvature="0" />
        <path
           id="path4232"
           d="m 239.84,80.013 c 0,0 -7.4548,2.1792 -11.078,2.1912 -4.9099,0 -8.4199,-1.3391 -10.53,-4.0172 -2.11,-2.6781 -3.1651,-6.7765 -3.1651,-12.295 l 0,-24.877 -7.9884,0 0,-9.878 8.3536,0 0.0115,-13.286 11.31,-0.04355 0,13.33 9.7833,0 0,9.878 -9.7833,0 0,26.642 c 0.004,3.7718 2.1349,5.3307 5.8872,4.8151 2.7513,-0.37806 7.1991,-1.574 7.1991,-1.574 z"
           inkscape:connector-curvature="0" />
        <path
           id="path4234"
           d="m 290.61,81.109 -11.747,0 0,-30.92 c 0,-3.5303 -0.68981,-6.2287 -2.0695,-8.0953 -1.339,-1.9072 -3.3882,-2.8607 -6.1475,-2.8607 -1.2579,0 -2.4955,0.20289 -3.7128,0.60867 -1.2174,0.3652 -2.3738,0.83184 -3.4694,1.3999 -1.055,0.56809 -2.0289,1.197 -2.9216,1.8869 -0.89272,0.64924 -1.6434,1.2579 -2.2521,1.826 l 0,36.155 -11.686,0 0,-49.971 11.117,0.08656 0.44815,2.8269 c 4.957,-2.462 9.6642,-4.047 14.73,-4.0699 3.7737,0 6.9185,0.7304 9.4343,2.1912 2.5564,1.4608 5.3538,4.4955 5.3538,4.4955 5.8489,-4.4051 10.768,-6.5895 17.471,-6.6867 11.233,-0.16299 17.676,9.9991 17.59,19.843 l 0,31.285 -11.747,0 0,-30.92 c 0.0734,-3.461 -0.59614,-6.1374 -1.9799,-8.0307 -1.38376,-1.8933 -3.5814,-2.5591 -5.672,-2.6192 -4.4094,-0.12679 -8.1576,3.1601 -13.079,7.0387 0,0 0.24455,31.03 0.34018,34.531 z"
           inkscape:connector-curvature="0" />
        <ellipse
           id="path4206"
           rx="7.3242998"
           ry="6.9106998"
           cy="19.027"
           cx="158.98" />
        <path
           id="path4228-0"
           d="m 343.43,81.178 -11.686,0 0,-49.971 11.686,0 z"
           inkscape:connector-curvature="0" />
        <ellipse
           id="path4206-9"
           rx="7.3242998"
           ry="6.9106998"
           cy="19.096001"
           cx="337.82001" />
      </g>
    </g>
    <path
       id="path3360-14-5"
       d="m 109.69,68.502 c 0,0 -27.724,16.38 -32.109,18.986 -4.3849,2.6054 -10.192,0.0624 -12.439,-5.4962 -2.2475,-5.5586 -24.404,-60.366 -24.404,-60.366 z"
       inkscape:connector-curvature="0"
       style="fill-opacity:0.21568998;fill-rule:evenodd" />
    <path
       id="path3360-14"
       d="m 109.69,68.502 c 0,0 -28.415,8.5989 -31.606,9.5664 -3.1914,0.96749 -5.7436,0.0508 -7.2209,-2.5899 -1.4773,-2.6407 -30.124,-53.853 -30.124,-53.853 z"
       inkscape:connector-curvature="0"
       style="fill:#55aa55;fill-rule:evenodd" />
  </g>
</svg>
