<?xml version="1.0" encoding="UTF-8" standalone="no"?>
<!-- Created with Inkscape (http://www.inkscape.org/) -->
<svg id="svg2" xmlns:rdf="http://www.w3.org/1999/02/22-rdf-syntax-ns#" xmlns="http://www.w3.org/2000/svg" xmlns:osb="http://www.openswatchbook.org/uri/2009/osb" height="64.132mm" width="164.16mm" version="1.1" xmlns:cc="http://creativecommons.org/ns#" viewBox="0 0 581.65314 227.24098" xmlns:dc="http://purl.org/dc/elements/1.1/">
 <metadata id="metadata7">
  <rdf:RDF>
   <cc:Work rdf:about="">
    <dc:format>image/svg+xml</dc:format>
    <dc:type rdf:resource="http://purl.org/dc/dcmitype/StillImage"/>
    <dc:title/>
   </cc:Work>
  </rdf:RDF>
 </metadata>
 <g id="layer5" transform="translate(-25.029 -10.459)" display="none">
  <rect id="rect3424" fill-rule="evenodd" height="333" width="746" stroke="#000" y=".36220" x="-1" stroke-width="1px" fill="#5a5"/>
 </g>
 <g id="layer6" transform="translate(-25.029 -10.459)" display="none">
  <flowRoot id="flowRoot4204" font-size="40px" xml:space="preserve" style="word-spacing:0px;letter-spacing:0px" line-height="125%" font-family="sans-serif" fill="#000000"><flowRegion id="flowRegion4206"><rect id="rect4208" y="38.362" width="204" x="481" height="224"/></flowRegion><flowPara id="flowPara4210"/></flowRoot>
 </g>
 <g id="layer8" transform="translate(-25.029 -10.459)" fill="#2d2d2d">
  <path id="path3360" d="m28.98 10.459c-1.95 0.02004-3.9495 2.0203-3.9473 4.0215l-0.0039 129.46 91.934 91.934v-91.932l0.002 0.004v-0.006l3.7246-0.002h-3.7266l0.004-86.576c-0.0105 0.0062-27.719 16.378-32.104 18.982-4.3849 2.6054-10.192 0.06251-12.439-5.4961-2.251-5.547-24.401-60.342-24.404-60.35l-0.0098-0.0059-19.033-0.02539zm95.984 133.48v91.932c10.741 0.002 42.267 0.007 46.027 0.01 1.9997-0.009 4.0006-2.0091 4.002-4.0059 0 0 0.0189-57.694 0.002-83.93-0.004-1.999-2.0043-4.007-4-4.0039l-46.031-0.002z" fill-rule="evenodd"/>
  <g id="flowRoot6092" transform="matrix(1.8386 0 0 1.8386 -35.89 86.563)">
   <g id="text4221" fill="#2d2d2d">
    <path id="path4226" d="m125.75 81.109-0.0102-69.011h11.991l0.0102 69.026z"/>
    <path id="path4228" d="m162.42 81.109h-11.686v-49.971h11.686z"/>
    <path id="path4230" d="m206.53 67.048c0 2.1506-0.3855 4.1592-1.1565 6.0258-0.7304 1.826-1.8666 3.4288-3.4085 4.8085-1.5014 1.3391-3.4086 2.3941-5.7215 3.1651-2.2724 0.77098-4.9505 1.1565-8.0344 1.1565-3.0028 0-5.8432-0.3652-8.5213-1.0956-2.6781-0.77098-6.8171-2.5526-6.8171-2.5526v-9.6185s9.8328 4.3841 14.973 4.4411c2.6374 0.02924 4.565-0.56809 5.7823-1.7043s1.826-2.5158 1.826-4.1389c0-0.85213-0.12172-1.6028-0.36519-2.2521-0.24348-0.68982-0.71012-1.3188-1.3999-1.8869-0.64924-0.60867-1.5825-1.197-2.7999-1.7651-1.1768-0.56809-2.6984-1.1768-4.565-1.826-2.5564-0.93329-4.707-1.9072-6.4518-2.9216-1.7043-1.055-3.0839-2.1912-4.1389-3.4085-1.0144-1.2579-1.7448-2.597-2.1912-4.0172-0.44636-1.4608-0.66954-3.0433-0.66954-4.7476 0-2.1912 0.46664-4.1795 1.3999-5.9649 0.97388-1.826 2.2724-3.3882 3.8955-4.6867 3.8408-2.8113 8.5568-4.1001 12.904-4.0781 2.8067 0.01421 9.2342 1.2079 9.2342 1.2079l0.0253 9.7928s-6.3916-1.4524-9.2145-1.4415c-3.7931-0.17466-7.3518 1.1519-7.4098 5.0488 0 0.68982 0.12172 1.3391 0.3652 1.9477 0.28404 0.60867 0.75068 1.197 1.3999 1.7651 0.64925 0.56809 1.542 1.1565 2.6782 1.7651 1.1362 0.56809 2.5767 1.1565 4.3215 1.7651 2.4347 0.85213 4.5244 1.7651 6.2693 2.739 1.7854 0.93329 3.2462 1.9883 4.3824 3.1651 1.1768 1.1768 2.0289 2.5361 2.5564 4.0781 0.56808 1.5014 0.85213 3.2462 0.85213 5.2345z"/>
    <path id="path4232" d="m240.93 80.013s-7.4548 2.1792-11.078 2.1912c-4.9099 0-8.4199-1.3391-10.53-4.0172-2.11-2.6781-3.1651-6.7765-3.1651-12.295v-24.877h-7.9884v-9.878h8.3536l0.0115-13.286 11.31-0.04355v13.33h9.7833v9.878h-9.7833v26.642c0.004 3.7718 2.1349 5.3307 5.8872 4.8151 2.7513-0.37806 7.1991-1.574 7.1991-1.574z"/>
    <path id="path4234" d="m292.79 81.109h-11.747v-30.92c0-3.5303-0.68981-6.2287-2.0695-8.0953-1.339-1.9072-3.3882-2.8607-6.1475-2.8607-1.2579 0-2.4955 0.20289-3.7128 0.60867-1.2174 0.3652-2.3738 0.83184-3.4694 1.3999-1.055 0.56809-2.0289 1.197-2.9216 1.8869-0.89272 0.64924-1.6434 1.2579-2.2521 1.826v36.155h-11.686v-49.971l11.117 0.08656 0.44815 2.8269c4.957-2.462 9.6642-4.047 14.73-4.0699 3.7737 0 6.9185 0.7304 9.4343 2.1912 2.5564 1.4608 5.3538 4.4955 5.3538 4.4955 5.8489-4.4051 10.768-6.5895 17.471-6.6867 11.233-0.16299 17.676 9.9991 17.59 19.843v31.285h-11.747v-30.92c0.0734-3.461-0.59614-6.1374-1.9799-8.0307s-3.5814-2.5591-5.672-2.6192c-4.4094-0.12679-8.1576 3.1601-13.079 7.0387 0 0 0.24455 31.03 0.34018 34.531z"/>
    <ellipse id="path4206" rx="7.3243" ry="6.9107" cy="19.027" cx="156.81"/>
    <path id="path4228-0" d="m347.78 81.178h-11.686v-49.971h11.686z"/>
    <ellipse id="path4206-9" rx="7.3243" ry="6.9107" cy="19.096" cx="342.17"/>
   </g>
  </g>
  <path id="path3360-14" d="m116.97 57.362s-28.415 8.5989-31.606 9.5664c-3.1915 0.96749-5.7436 0.05079-7.2209-2.5899-1.475-2.64-30.122-53.853-30.122-53.853z" fill-rule="evenodd"/>
 </g>
 <g id="layer2" transform="translate(-25.029 -10.459)" display="none">
  <path id="path3360-14-6" d="m116.97 57.362s-28.415 8.5989-31.606 9.5664c-3.1914 0.96748-5.7436 0.0508-7.2209-2.5899s-30.124-53.853-30.124-53.853z" fill-rule="evenodd" fill-opacity=".1" display="inline"/>
 </g>
</svg>
