<?xml version="1.0" encoding="UTF-8" standalone="no"?>
<!-- Created with Inkscape (http://www.inkscape.org/) -->
<svg id="svg2" xmlns:rdf="http://www.w3.org/1999/02/22-rdf-syntax-ns#" xmlns="http://www.w3.org/2000/svg" height="188.08mm" width="122.17mm" version="1.1" xmlns:cc="http://creativecommons.org/ns#" xmlns:dc="http://purl.org/dc/elements/1.1/" viewBox="0 0 432.87098 666.44256">
 <g id="layer3" transform="translate(-161.27 -140.64)">
  <g id="g4533">
   <path id="path4305" d="m373 357.36-62.96-32.16-25.58 65.91-21.77-67.26-64.69 28.51 32.16-62.95-65.9-25.58 67.25-21.78-28.51-64.69l62.956 32.161 25.58-65.905 21.775 67.258 64.69-28.51-32.161 62.956 65.905 25.58-67.258 21.775z" stroke="#000" stroke-width="2" fill="none"/>
   <g id="g4477" style="">
    <g id="g4436" style="">
     <g id="g4429">
      <path id="path3348" d="m493.94 234.82c-0.91416-0.009-1.8677-0.003-2.8633 0.0156 0 0-131.87 0.42874-197.78 1.0391-10.739 0.0994-21.133 3.86-29.518 12.914-6.0806 6.5664-9.2101 14.113-9.2129 23.062l-0.15039 489.75c-0.003 9.2675 3.0484 18.309 9.4707 24.99 6.3086 6.563 16.081 11.232 25.184 11.354l190.18 2.5371 52.402-9.2988-0.84375-123.4 1.3164-397.27c0.0286-8.6338-5.345-20.075-12.209-26.008-7.3313-6.3369-12.258-9.5583-25.971-9.6875zm-222.94 64.54l243 1 1 434-244-2v-433z" fill-rule="evenodd"/>
      <rect id="rect4303" height="431.85" width="243.91" y="300.38" x="271.05" fill="#fff"/>
     </g>
     <g id="g4314">
      <rect id="rect4166" height="303.12" width="206.12" stroke="#000" y="317.3" x="290.94" stroke-width=".87739" fill="#fff"/>
      <flowRoot id="flowRoot4176" font-size="40px" xml:space="preserve" style="word-spacing:0px;letter-spacing:0px" line-height="125%" font-family="sans-serif" fill="#000000"><flowRegion id="flowRegion4178"><rect id="rect4180" y="326.36" width="185" x="300" height="374"/></flowRegion><g font-family="Courier"><flowPara id="flowPara4236" font-size="20px">         KVITTO</flowPara><g font-size="11.25px"><flowPara id="flowPara4230"/><flowPara id="flowPara4186">Tomater, 245g                   10,00</flowPara><flowPara id="flowPara4188">Potatis, 900 g                    10,00</flowPara><flowPara id="flowPara4198">Mjölk, 1L                            10,00</flowPara><flowPara id="flowPara4200">Smör, 1 pkt                       10,00</flowPara><flowPara id="flowPara4190">Apelsiner, 1 kg                  10,00</flowPara><flowPara id="flowPara4214">Bananer, 3 st                     10,00</flowPara><flowPara id="flowPara4216">MOMS 25%                          5,00</flowPara><flowPara id="flowPara4220"/><flowPara id="flowPara4222">TOTALT                        SEK 65,00</flowPara></g></g></flowRoot>
     </g>
    </g>
    <g id="g4307">
     <rect id="rect4275" height="104.76" width="244.03" y="629.04" x="270.93" fill="#5a5"/>
     <flowRoot id="flowRoot4277" style="word-spacing:0px;letter-spacing:0px" xml:space="preserve" font-size="45px" line-height="125%" font-family="Courier" fill="#000000"><flowRegion id="flowRegion4279"><rect id="rect4281" height="65.04" width="204.72" y="650.34" x="292.46"/></flowRegion><flowPara id="flowPara4283" style="text-anchor:middle;text-align:center" font-weight="bold" font-size="45px" font-family="Arial" fill="#ffffff">Scanna</flowPara></flowRoot>
    </g>
   </g>
   <path id="path4156" d="m481.89 805.94c-2.5049-6.2023-3.3572-13.313-6.9641-18.91-7.5305-8.5802-13.698-18.539-23.311-25.013-8.7416-7.2251-19.688-13.982-26.517-23.195-12.3-13.21-21.053-27.789-31.95-42.131-3.1431-11.275-7.1381-29.89 1.5377-39.134 5.6002-5.9669 17.348-8.6229 22.29-5.4729 22.1 14.087 33.615 23.709 52.151 35.247 6.8528 3.6495 14.418 6.3032 19.376 12.602l27.328 26.456c5.0531-8.9825 11.099-17.705 15.54-26.848l-0.69061-28.66 13.789 10.96c3.5424-5.738 3.3609-12.736 1.4142-18.738-2.9552-9.1119-10.635-16.277-14.845-24.727l0.70251-104.67c8.2973 3.9404 17.237 7.105 25.138 11.524 8.0395 11.25 15.686 22.736 22.027 35.049 4.4782 8.6954 10.007 17.081 14 25.884 0.0776 66.64 0.1553 133.28 0.23295 199.92z" fill-rule="evenodd" stroke="#000" stroke-width="2" fill="#fff"/>
  </g>
 </g>
 <g id="layer4" transform="translate(-161.27 -140.64)">
  <path id="path4160" d="m412.48 694.21c-9.1571-2.0369-14.147-9.08-20.506-15.91 0 0-1.8914-14.832 7.4246-22.274 7.1717-5.729 17.678-4.2426 17.678-4.2426 10.993 7.0284 28.638 21.567 28.638 21.567-2.1113 6.1921-11.853 7.3755-16.9 9.5106-7.0058 2.6016-11.834 5.7245-16.334 11.349z" stroke="#000" stroke-width="2" fill="none"/>
 </g>
</svg>
