<?xml version="1.0" standalone="no"?>
<!DOCTYPE svg PUBLIC "-//W3C//DTD SVG 20010904//EN"
 "http://www.w3.org/TR/2001/REC-SVG-20010904/DTD/svg10.dtd">
<svg version="1.0" xmlns="http://www.w3.org/2000/svg"
 width="225.000000pt" height="225.000000pt" viewBox="0 0 225.000000 225.000000"
 preserveAspectRatio="xMidYMid meet">
<metadata>
Created by potrace 1.11, written by Peter Selinger 2001-2013
</metadata>
<g transform="translate(0.000000,225.000000) scale(0.100000,-0.100000)"
fill="#000000" stroke="none">
<path d="M388 2239 c-17 -9 -18 -52 -18 -666 l0 -656 460 -459 460 -458 271 0
c167 0 278 4 290 10 18 10 19 26 19 441 0 257 -4 438 -10 448 -10 20 5 19
-377 20 l-193 1 0 433 0 432 -78 52 c-42 28 -138 93 -212 144 -74 50 -194 131
-266 180 l-132 89 -98 0 c-55 0 -107 -5 -116 -11z"/>
</g>
</svg>
